<svg xmlns="http://www.w3.org/2000/svg" viewBox="0 0 511.998 511.998" style="enable-background:new 0 0 511.998 511.998" xml:space="preserve"><path style="fill:#5c6670" d="M139.851 185.559h232.284v270.35H139.851z"/><path style="fill:#a4a9ad" d="M383.582 154.918v42.365c0 8.356-6.837 15.192-15.192 15.192H143.609c-8.356 0-15.192-6.836-15.192-15.192v-42.365h255.165z"/><path style="fill:#5c6670" d="M128.417 154.918h255.165v28.779H128.417z"/><path style="fill:#333e48" d="M421.893 140.566c0 16.71-13.673 30.383-30.383 30.383H120.489c-16.71 0-30.383-13.673-30.383-30.383V38.512c0-16.711 13.673-30.383 30.383-30.383h271.02c16.711 0 30.383 13.672 30.383 30.383v102.054h.001z"/><path style="fill:#a4a9ad" d="M346.134 49.843h22.28V85.29h-22.28z"/><path style="fill:#5c6670" d="M346.134 67.569h22.28v17.725h-22.28z"/><path style="fill:#333e48" d="M174.058 234.674v19.56h-45.162l33.422 50.131h175.623v-69.691z"/><path style="fill:#99daea" d="M368.329 302.172c-3.955-16.235-20.866-29.519-37.577-29.519H181.244c-16.71 0-33.621 13.285-37.577 29.519l-26.591 109.133c-3.956 16.236 6.48 29.52 23.19 29.52h231.462c16.711 0 27.146-13.285 23.19-29.52l-26.589-109.133z"/><path style="fill:#734f42" d="m394.92 411.305-14.775-60.643H131.853l-14.776 60.643c-3.956 16.236 6.48 29.52 23.19 29.52h231.462c16.711.002 27.147-13.283 23.191-29.52z"/><path style="fill:#333e48" d="M421.893 473.488c0 16.711-13.673 30.383-30.383 30.383H120.489c-16.71 0-30.383-13.672-30.383-30.383v-10.939c0-16.71 13.673-30.383 30.383-30.383h271.02c16.711 0 30.383 13.673 30.383 30.383v10.939h.001z"/><path style="fill:#1e252b" d="M229.88 312.601h-15.925a8.129 8.129 0 0 0 0 16.258h15.925a8.129 8.129 0 0 0 0-16.258zm-15.926 86.514h15.925a8.129 8.129 0 0 0 0-16.258h-15.925a8.129 8.129 0 0 0 0 16.258zM373.558 41.714h-32.561a8.129 8.129 0 0 0-8.129 8.129V85.29c0 4.49 3.64 8.129 8.129 8.129h32.561a8.129 8.129 0 0 0 8.129-8.129V49.843c0-4.49-3.64-8.129-8.129-8.129zm-8.129 35.447h-16.302V57.972h16.303l-.001 19.189zm26.282 120.122v-18.209c21.143-.111 38.309-17.339 38.309-38.507V38.512C430.022 17.276 412.745 0 391.509 0h-271.02C99.254 0 81.977 17.276 81.977 38.512v102.054c0 21.168 17.167 38.398 38.311 38.507v18.209c0 8.516 4.603 15.96 11.438 20.029v28.792h-2.83a8.128 8.128 0 0 0-6.764 12.638l9.594 14.389v43.715l-22.547 92.534c-1.371 5.624-1.382 11.231-.131 16.389-15.667 4.884-27.072 19.524-27.072 36.778v10.939c0 21.236 17.276 38.512 38.512 38.512h271.02c21.236 0 38.512-17.276 38.512-38.512v-10.939c0-17.254-11.406-31.895-27.073-36.779 1.251-5.156 1.24-10.764-.131-16.388l-7.107-29.167c7.092-1.427 12.639-4.485 16.546-9.149 9.326-11.136 6.365-27.743 4.405-38.731-.62-3.478-1.606-9.674-2.651-16.233-1.948-12.235-4.157-26.103-5.526-32.282-3.544-15.997-13.269-27.242-28.211-32.811V217.31c6.836-4.068 11.439-11.511 11.439-20.027zM124.975 413.23l13.264-54.439h68.141c1.177 3.038 4.121 5.195 7.574 5.195h15.925c3.453 0 6.397-2.157 7.574-5.195h10.416v43.339a8.129 8.129 0 0 0 16.258 0v-43.339h109.629l13.264 54.439c.966 3.965.76 7.685-.541 10.806H125.516c-1.301-3.122-1.507-6.842-.541-10.806zm131.024-111.773a8.129 8.129 0 0 0-8.129 8.129v32.948H142.2l9.366-38.437c3.079-12.638 16.671-23.315 29.679-23.315h149.508c13.009 0 26.599 10.677 29.679 23.315l9.366 38.437h-105.67v-32.948a8.128 8.128 0 0 0-8.129-8.129zm90.071-54.225v-12.558c0-4.49-3.64-8.129-8.129-8.129H174.058a8.129 8.129 0 0 0-8.129 8.129v11.431h-17.945v-25.501h216.031v26.766c-6.728-.679-13.017-.478-17.945-.138zm17.945 16.565v15.195c-5.069-5.094-11.248-9.126-17.946-11.626v-3.814c5.958-.403 12.115-.482 17.946.245zm-189.957-1.434a8.129 8.129 0 0 0 8.129-8.129v-11.431h147.624v21.721H181.244c-10.359 0-20.552 3.963-28.754 10.445l-8.404-12.607 29.972.001zm194.333-58.019H143.609a7.071 7.071 0 0 1-7.063-7.063v-18.204h238.908v18.204c-.001 3.895-3.169 7.063-7.063 7.063zm45.373 258.204v10.939c0 12.271-9.984 22.254-22.254 22.254H120.489c-12.271 0-22.254-9.984-22.254-22.254v-10.939c0-12.271 9.984-22.254 22.254-22.254h271.02c12.271 0 22.255 9.984 22.255 22.254zm-21.152-175.212c1.263 5.701 3.525 19.907 5.342 31.322 1.103 6.924 2.055 12.902 2.702 16.529 1.429 8.013 3.588 20.122-.864 25.44-1.58 1.887-4.254 3.14-7.934 3.775l-11.584-47.546V269.05c5.889 3.66 10.372 9.417 12.338 18.286zM120.489 162.821c-12.271 0-22.254-9.984-22.254-22.254V38.512c0-12.271 9.984-22.254 22.254-22.254h271.02c12.271 0 22.254 9.984 22.254 22.254v102.054c0 12.27-9.984 22.254-22.254 22.254h-271.02v.001zm236.789-53.225c-6.152 0-11.14 4.989-11.14 11.14 0 6.153 4.988 11.139 11.14 11.139s11.14-4.987 11.14-11.139c0-6.151-4.988-11.14-11.14-11.14zm-36.46 0c-6.153 0-11.14 4.989-11.14 11.14 0 6.153 4.987 11.139 11.14 11.139 6.152 0 11.14-4.987 11.14-11.139 0-6.151-4.988-11.14-11.14-11.14z"/></svg>