<svg xmlns="http://www.w3.org/2000/svg" viewBox="0 0 32 32"><defs><style>.cls-2{fill:#d1e6e9}.cls-3{fill:#a1d8df}</style></defs><g id="Tea"><path d="M22.76 31H3.24C1.86 31 1.47 29.94 1 29h24c-.45.91-.83 2-2.24 2z" style="fill:#30acc2"/><path class="cls-2" d="M20 27v-2a12.16 12.16 0 0 0 6.77-2c1-.69 2.23-1.3 2.23-3a2.91 2.91 0 0 0-2.91-3H24v-2h2.09a4.91 4.91 0 0 1 2.72 9c-2.71 1.8-5.1 3-8.81 3z"/><path class="cls-3" d="M19 29c-11.89 0-12.1-.1-12 0a20.49 20.49 0 0 1-6-14.49V13h24v1.51A20.51 20.51 0 0 1 19 29z"/><path class="cls-2" d="M14 19h1v1a3 3 0 0 1-3 3h-1v-1a3 3 0 0 1 3-3zM6 13h2v5H6z"/><rect x="5" y="16" width="4" height="4" rx="1" style="fill:#68c7d3"/><path class="cls-3" d="M9 9H7c0-2 1.69-2.08.7-3.4a3 3 0 0 1 0-3.87A1 1 0 0 0 8 1h2c0 1.68-1 1.85-1 2.66s1 1 1 2.67S9 8.18 9 9zM14 9h-2c0-2 1.69-2.08.7-3.4a3 3 0 0 1 0-3.87A1 1 0 0 0 13 1h2c0 1.68-1 1.85-1 2.66s1 1 1 2.67S14 8.18 14 9zM19 9h-2c0-2 1.69-2.08.7-3.4a3 3 0 0 1 0-3.87A1 1 0 0 0 18 1h2c0 1.68-1 1.85-1 2.66s1 1 1 2.67S19 8.18 19 9z"/></g></svg>