<svg xmlns="http://www.w3.org/2000/svg" width="64" height="64" xml:space="preserve"><path fill="#E6E9ED" d="M47.029 43.5h-46v-35c0-1.1.9-2 2-2h49.99c1.1 0 2 .9 2 2v19h-3.99v-17h-46v17h44c-1.1 0-2 .9-2 2v14z"/><path fill="#5D9CEC" d="M50.998 9.498H5a1 1 0 0 0-1 1v16.998a1 1 0 0 0 1 1h45.998a1 1 0 0 0 1-1V10.498a1 1 0 0 0-1-1z"/><path fill="#545C66" d="M18.999 54.5h20.002a2 2 0 0 1 2 2v1H14.999v-1c0-1.11.89-2 2-2h2z"/><path fill="#434A54" d="m35.001 47.5 2 7H18.999l2-7z"/><path fill="#545C66" d="M1.05 43.5H47v4H3c-1.1 0-2-.9-2-2v-2h.05z"/><path fill="#FFCE54" d="M15 14c1.388 0 2.5 1.125 2.5 2.5A2.49 2.49 0 0 1 15 19a2.499 2.499 0 1 1 0-5z"/><path fill="#434A54" d="M28.026 46.498c-.553 0-1.005-.447-1.005-1s.442-1 .994-1h.011a1 1 0 1 1 0 2z"/><path fill="#545C66" d="M47.002 44.498H1.047a1 1 0 1 1 0-2h45.955a1 1 0 1 1 0 2z"/><path fill="#545C66" d="M46.986 48.498H3c-1.654 0-3-1.346-3-3V8.502c0-1.654 1.346-3 3-3h49.992c1.654 0 3 1.346 3 3V27.48a1 1 0 1 1-2 0V8.502a1 1 0 0 0-1-1H3a1 1 0 0 0-1 1v36.996a1 1 0 0 0 1 1h43.986a1 1 0 1 1 0 2zM39.996 58.496H15.998a1 1 0 1 1 0-2h23.998a1 1 0 1 1 0 2z"/><path fill="#CCD1D9" d="M47 32.498H5a1 1 0 1 1 0-2h42a1 1 0 1 1 0 2zM47 36.502H5a1 1 0 1 1 0-2h42a1 1 0 1 1 0 2zM47 40.506H5a1 1 0 1 1 0-2h42a1 1 0 1 1 0 2z"/><path fill="#656D78" d="M36.544 16.685a1.04 1.04 0 0 0-.358-.152.974.974 0 0 0-.743.151c-.026.019-.057.023-.082.044s-.036.05-.06.072c-.025.025-.06.039-.083.068l-9.515 11.628h20.579l-9.516-11.628c-.023-.029-.058-.043-.084-.068-.022-.022-.033-.052-.059-.072-.022-.021-.053-.026-.079-.043z"/><path fill="#545C66" d="M28.269 19.87c-.022-.027-.055-.041-.079-.065-.025-.024-.038-.058-.066-.08-.026-.021-.06-.027-.087-.046a1.082 1.082 0 0 0-.356-.147c-.063-.013-.124-.017-.188-.017a.914.914 0 0 0-.369.072.983.983 0 0 0-.176.092c-.028.019-.061.024-.087.046-.028.022-.041.055-.066.08-.024.024-.057.038-.079.065l-7.009 8.626h5.997l4.804-5.87-2.239-2.756z"/><path fill="#656D78" d="M63 29.5v2H48.001v-2c0-1.1.9-2 2-2H61c1.1 0 2 .9 2 2zM63 53.5v2c0 1.1-.9 2-2 2H50.001c-1.1 0-2-.9-2-2v-2H63z"/><path fill="#E6E9ED" d="M63 41.5v12H48.001L47 47.5v-6h15z"/><path fill="#656D78" d="M61 58.498H50.003c-1.654 0-3-1.346-3-3V29.496c0-1.654 1.346-3 3-3H61c1.654 0 3 1.346 3 3v26.002c0 1.654-1.346 3-3 3zM50.003 28.496c-.552 0-1 .448-2.001 1v26.002c1.001.552 1.449 1 2.001 1H61c.552 0 1-.448 1.999-1V29.496c-.999-.552-1.447-1-1.999-1H50.003z"/><path fill="#AAB2BD" d="M55.504 56.998c-.553 0-1.005-.447-1.005-1s.442-1 .994-1h.011a1 1 0 1 1 0 2z"/><path fill="#CCD1D9" d="M59.998 48.498h-8.999a1 1 0 1 1 0-2h8.999a1 1 0 1 1 0 2zM59.998 45.498h-8.999a1 1 0 1 1 0-2h8.999a1 1 0 1 1 0 2zM59.998 51.498h-8.999a1 1 0 1 1 0-2h8.999a1 1 0 1 1 0 2z"/><g><path fill="#5D9CEC" d="M48.001 30.499H63V41.5H48.001z"/><path fill="#656D78" d="m63 41.196-4.167-6.253-.003-.004c-.053-.079-.125-.135-.194-.194-.03-.025-.049-.061-.083-.083h-.001a.985.985 0 0 0-.363-.148c-.063-.013-.127-.001-.19-.001-.064 0-.128-.012-.191.001a.992.992 0 0 0-.363.148c-.021.015-.033.037-.053.054a.938.938 0 0 0-.225.224l-.003.004-4.37 6.556H63v-.304z"/><path fill="#545C66" d="m54.836 36.447-.002-.003-.002-.003c-.038-.057-.093-.092-.139-.139-.047-.046-.082-.101-.139-.139l-.001-.001a.992.992 0 0 0-.362-.147c-.064-.013-.128-.001-.191-.001-.064 0-.128-.012-.191.001a.991.991 0 0 0-.641.426l-.002.003-.002.003-3.368 5.053h2.998l2.705-4.059-.663-.994z"/><path fill="#FFCE54" d="M51.031 34.493c-.553 0-1.005-.447-1.005-1s.442-1 .994-1h.011a1 1 0 1 1 0 2z"/></g></svg>