<svg xmlns="http://www.w3.org/2000/svg" width="64" height="64" xml:space="preserve"><path fill="#E6E9ED" d="M3.5 6.243h2v33.01h-2z"/><path fill="#434A54" d="M5.5 6.253h55v32.99h-55z"/><circle fill="#CCD1D9" cx="32" cy="45.743" r="1.5"/><path fill="#CCD1D9" d="M63.5 46.263v1.98c0 1.689-1.311 3-3 3h-57c-1.689 0-3-1.311-3-3v-1.98c0 1.65 1.35 3 3 3h57c1.65 0 3-1.35 3-3zM38.49 51.243l2 9H23.51l2-9h12.98z"/><path fill="#E6E9ED" d="M32 42.243H.5v4.02c0 1.65 1.35 3 3 3h57c1.65 0 3-1.35 3-3v-4.02H32zm0 5c-.83 0-1.5-.67-1.5-1.5s.67-1.5 1.5-1.5 1.5.67 1.5 1.5-.67 1.5-1.5 1.5z"/><path fill="#656D78" d="M63.5 6.263v35.98H.5V6.263c0-1.649 1.35-3 3-3h57c1.65 0 3 1.35 3 3zm-3 32.98v-33h-57v33h57z"/><path fill="#AAB2BD" d="m38.713 52.243-.223-1H25.51l-.223 1h13.426z"/><path fill="#E6E9ED" d="M42 60.737H22a.5.5 0 0 1 0-1h20a.5.5 0 0 1 0 1z"/><path fill="#FFCE54" d="M12.5 9.753h-4a.5.5 0 0 1 0-1h4a.5.5 0 0 1 0 1z"/><path fill="#AC92EC" d="M30.5 12.753h-14a.5.5 0 0 1 0-1h14a.5.5 0 0 1 0 1zM14.5 12.753h-5a.5.5 0 0 1 0-1h5a.5.5 0 0 1 0 1z"/><path fill="#5D9CEC" d="M42.5 15.753h-13a.5.5 0 0 1 0-1h13a.5.5 0 0 1 0 1zM48.5 15.753h-4a.5.5 0 0 1 0-1h4a.5.5 0 0 1 0 1zM27.5 15.753h-17a.5.5 0 0 1 0-1h17a.5.5 0 0 1 0 1z"/><path fill="#ED5565" d="M15.502 21.753h-3a.5.5 0 0 1 0-1h3a.5.5 0 0 1 0 1zM32.346 21.753H17.502a.5.5 0 0 1 0-1h14.844a.5.5 0 0 1 0 1z"/><path fill="#A0D468" d="M34.5 18.753h-23a.5.5 0 0 1 0-1h23a.5.5 0 0 1 0 1z"/><path fill="#4FC1E9" d="M35.502 24.753h-9a.5.5 0 0 1 0-1h9a.5.5 0 0 1 0 1z"/><path fill="#A0D468" d="M28.502 27.753h-17a.5.5 0 0 1 0-1h17a.5.5 0 0 1 0 1z"/><path fill="#AC92EC" d="M17.5 33.753h-8a.5.5 0 0 1 0-1h8a.5.5 0 0 1 0 1z"/><path fill="#5D9CEC" d="M37.5 30.753h-14a.5.5 0 0 1 0-1h14a.5.5 0 0 1 0 1zM40.5 30.753h-1a.5.5 0 0 1 0-1h1a.5.5 0 0 1 0 1zM21.5 30.753h-11a.5.5 0 0 1 0-1h11a.5.5 0 0 1 0 1z"/><path fill="#FFCE54" d="M12.5 36.753h-4a.5.5 0 0 1 0-1h4a.5.5 0 0 1 0 1z"/><path fill="#A0D468" d="M36.502 27.753h-6a.5.5 0 0 1 0-1h6a.5.5 0 0 1 0 1z"/><path fill="#4FC1E9" d="M44.502 24.753h-7a.5.5 0 0 1 0-1h7a.5.5 0 0 1 0 1zM24.502 24.753h-12a.5.5 0 0 1 0-1h12a.5.5 0 0 1 0 1z"/><g fill="#CCD1D9"><path d="M4 24.248a.5.5 0 0 0-.5-.5v1a.5.5 0 0 0 .5-.5zM4 27.248a.5.5 0 0 0-.5-.5v1a.5.5 0 0 0 .5-.5zM4 30.248a.5.5 0 0 0-.5-.5v1a.5.5 0 0 0 .5-.5zM4 33.248a.5.5 0 0 0-.5-.5v1a.5.5 0 0 0 .5-.5zM4 36.248a.5.5 0 0 0-.5-.5v1a.5.5 0 0 0 .5-.5zM4 21.248a.5.5 0 0 0-.5-.5v1a.5.5 0 0 0 .5-.5zM4 18.248a.5.5 0 0 0-.5-.5v1a.5.5 0 0 0 .5-.5zM4 15.248a.5.5 0 0 0-.5-.5v1a.5.5 0 0 0 .5-.5zM4 12.248a.5.5 0 0 0-.5-.5v1a.5.5 0 0 0 .5-.5zM4 9.248a.5.5 0 0 0-.5-.5v1a.5.5 0 0 0 .5-.5z"/></g></svg>