<svg xmlns="http://www.w3.org/2000/svg" viewBox="0 0 800 800" xml:space="preserve"><path d="M68.322 143.815v418.384c0 22.283 18.127 40.41 40.408 40.41h282.252a10.173 10.173 0 0 0-.241 2.204v66.888c-16.893 4.173-29.47 19.415-29.47 37.579 0 21.364 17.38 38.746 38.746 38.746 21.366 0 38.746-17.382 38.746-38.746 0-18.163-12.577-33.404-29.468-37.578v-66.889c0-.789-.091-1.519-.242-2.204h282.214c22.285 0 40.413-18.127 40.413-40.41V143.814c9.029-2.79 15.65-11.115 15.65-21.047V74.101c0-12.2-9.924-22.127-22.127-22.127H74.794c-12.198 0-22.122 9.926-22.122 22.127v48.665c0 9.934 6.622 18.26 15.65 21.049zM420.209 709.28c0 11.134-9.059 20.193-20.193 20.193-11.134 0-20.193-9.059-20.193-20.193 0-11.136 9.059-20.195 20.193-20.195 11.133 0 20.193 9.059 20.193 20.195zm292.916-147.082c0 12.053-9.807 21.857-21.86 21.857H108.73c-12.053 0-21.855-9.804-21.855-21.857V144.894h626.25v417.304zM71.225 74.101c0-1.936 1.635-3.574 3.569-3.574H725.2c1.939 0 3.574 1.637 3.574 3.574v48.665c0 1.936-1.635 3.574-3.574 3.574H74.794c-1.934 0-3.569-1.637-3.569-3.574V74.101z"/><path d="M218.055 351.534c18.408 0 33.387-14.977 33.387-33.387 0-3.273-.494-6.429-1.376-9.42l63.784-40.702c5.883 5.175 13.573 8.342 22.005 8.342 8.602 0 16.429-3.298 22.354-8.66l66.853 41.328c-.629 2.557-.999 5.214-.999 7.962 0 18.408 14.975 33.385 33.383 33.385s33.387-14.977 33.387-33.385c0-5.407-1.32-10.501-3.612-15.024l45.396-43.01c8.685-8.229-4.45-21.332-13.119-13.119l-44.914 42.554c-5.018-3.018-10.868-4.788-17.137-4.788-8.968 0-17.104 3.573-23.108 9.347l-66.353-41.018c.798-2.855 1.256-5.851 1.256-8.957 0-18.41-14.979-33.387-33.387-33.387s-33.387 14.977-33.387 33.387c0 3.272.494 6.428 1.375 9.418l-63.785 40.703c-5.883-5.174-13.572-8.341-22.003-8.341-18.408 0-33.387 14.977-33.387 33.385 0 18.41 14.979 33.387 33.387 33.387zm239.391-49.372c8.18 0 14.834 6.654 14.834 14.834 0 8.178-6.654 14.832-14.834 14.832-8.176 0-14.83-6.654-14.83-14.832 0-8.18 6.654-14.834 14.83-14.834zm-121.591-74.015c8.18 0 14.834 6.654 14.834 14.834 0 8.178-6.654 14.832-14.834 14.832s-14.834-6.654-14.834-14.832c0-8.18 6.653-14.834 14.834-14.834zm-117.8 75.168c8.18 0 14.834 6.654 14.834 14.832 0 8.18-6.654 14.834-14.834 14.834s-14.834-6.654-14.834-14.834c0-8.178 6.654-14.832 14.834-14.832zM583.934 230.541c18.408 0 33.387-14.977 33.387-33.385s-14.979-33.385-33.387-33.385-33.383 14.977-33.383 33.385 14.974 33.385 33.383 33.385zm0-48.217c8.18 0 14.834 6.654 14.834 14.832s-6.654 14.832-14.834 14.832c-8.176 0-14.83-6.654-14.83-14.832s6.654-14.832 14.83-14.832z"/><circle cx="544.974" cy="234.061" r="8.674"/><path d="M285.831 436.177h-60.438c-10.341 0-18.752 8.411-18.752 18.752v83.985c0 10.339 8.411 18.75 18.752 18.75h60.438c10.341 0 18.752-8.411 18.752-18.75V454.93c0-10.341-8.412-18.753-18.752-18.753zm.199 102.737c0 .088-.109.197-.199.197l-60.637-.197.199-84.184 60.637.199v83.985zM576.514 354.815h-60.266c-10.391 0-18.843 8.452-18.843 18.841v165.17c0 10.388 8.452 18.838 18.843 18.838h60.266c10.386 0 18.838-8.45 18.838-18.838v-165.17c.001-10.388-8.452-18.841-18.838-18.841zm.285 184.011c0 .136-.149.285-.285.285l-60.555-.285.29-165.457 60.551.288v165.169zM424.167 393.867h-49.834c-12.379 0-22.453 10.071-22.453 22.453v118.892c0 12.382 10.074 22.453 22.453 22.453h53.036c12.379 0 22.453-10.071 22.453-22.453v-13.685l.001-.008v-32.52c0-11.938-18.553-11.958-18.553 0h-.001v46.213c0 2.113-1.785 3.9-3.9 3.9h-53.036c-2.115 0-3.9-1.787-3.9-3.9V416.32c0-2.113 1.785-3.9 3.9-3.9h49.834a7.109 7.109 0 0 1 7.102 7.102h.001v13.191c0 4.852 4.267 9.501 9.277 9.276 5.025-.225 9.276-4.076 9.276-9.276v-13.967c0-.24-.056-.473-.076-.711-.777-13.453-11.935-24.168-25.58-24.168z"/><path d="M440.547 450.855a8.678 8.678 0 1 0 0 17.356 8.678 8.678 0 0 0 0-17.356z"/><path fill="#F16235" d="M71.225 74.101c0-1.936 1.635-3.574 3.569-3.574H725.2c1.939 0 3.574 1.637 3.574 3.574v48.665c0 1.936-1.635 3.574-3.574 3.574H74.794c-1.934 0-3.569-1.637-3.569-3.574V74.101z"/><path fill="#58C7DE" d="M286.03 538.914c0 .088-.109.197-.199.197l-60.637-.197.199-84.184 60.637.199v83.985z"/><path fill="#F16235" d="M576.799 538.826c0 .136-.149.285-.285.285l-60.555-.285.29-165.457 60.551.288v165.169zM457.446 302.162c8.18 0 14.834 6.654 14.834 14.834 0 8.178-6.654 14.832-14.834 14.832-8.176 0-14.83-6.654-14.83-14.832 0-8.18 6.654-14.834 14.83-14.834z"/><path fill="#58C7DE" d="M335.855 228.147c8.18 0 14.834 6.654 14.834 14.834 0 8.178-6.654 14.832-14.834 14.832s-14.834-6.654-14.834-14.832c0-8.18 6.653-14.834 14.834-14.834z"/><path fill="#F16235" d="M218.055 303.315c8.18 0 14.834 6.654 14.834 14.832 0 8.18-6.654 14.834-14.834 14.834s-14.834-6.654-14.834-14.834c0-8.178 6.654-14.832 14.834-14.832z"/><path fill="#58C7DE" d="M583.934 182.324c8.18 0 14.834 6.654 14.834 14.832s-6.654 14.832-14.834 14.832c-8.176 0-14.83-6.654-14.83-14.832s6.654-14.832 14.83-14.832zM420.209 709.28c0 11.134-9.059 20.193-20.193 20.193-11.134 0-20.193-9.059-20.193-20.193 0-11.136 9.059-20.195 20.193-20.195 11.133 0 20.193 9.059 20.193 20.195z"/></svg>