<svg xmlns="http://www.w3.org/2000/svg" viewBox="0 0 1000 1000" xml:space="preserve"><switch><g><circle fill="#13333D" cx="500" cy="500" r="398"/><circle fill="#0F3D4E" cx="500" cy="500" r="344.3"/><path fill="#13333D" d="m742.5 305.4-30.6-11.1c-5.2-1.9-10.9.8-12.8 6l-9 24.7H298c-13.8 0-25 11.2-25 25v260c0 13.8 11.2 25 25 25h11v2.3c0 2.8 2.2 5 5 5h32.3c2.8 0 5-2.2 5-5V635h10.9v2.3c0 2.8 2.2 5 5 5h11.2c2.8 0 5-2.2 5-5V635h72.1L436 708h-34.3c-5.1 0-9.5 3-11.5 7.4-.2.4-.3.8-.5 1.2l-.3 1.2v.1c-.1.4-.1.8-.2 1.1v.2c0 .4-.1.9-.1 1.4 0 7 5.7 12.7 12.7 12.7h196.7c3.9 0 7.5-1.8 9.8-4.6 1.8-2.2 2.9-5 2.9-8.1 0-.5 0-.9-.1-1.4v-.2c0-.4-.1-.8-.2-1.1v-.1l-.3-1.2c-1.7-5-6.4-8.6-12-8.6H564l-19.5-73H702c13.8 0 25-11.2 25-25V377.4l21.5-59.2c1.9-5.2-.8-10.9-6-12.8z"/><g><path fill="#36A9E1" d="M702 615H298c-13.8 0-25-11.2-25-25V330c0-13.8 11.2-25 25-25h404c13.8 0 25 11.2 25 25v260c0 13.8-11.2 25-25 25z"/><path fill="#413E91" d="M564 688H436l19.5-73h89z"/><path fill="#36A9E1" d="M598.3 713.3H401.7c-7 0-12.7-5.7-12.7-12.7 0-7 5.7-12.7 12.7-12.7h196.7c7 0 12.7 5.7 12.7 12.7-.1 7.1-5.8 12.7-12.8 12.7z"/><path fill="#0091C5" d="M598.3 702.8H401.7c-5.1 0-9.5-3-11.5-7.4-.7 1.6-1.1 3.4-1.1 5.3 0 7 5.7 12.7 12.7 12.7h196.7c7 0 12.7-5.7 12.7-12.7 0-1.9-.4-3.6-1.1-5.3-2.2 4.4-6.6 7.4-11.8 7.4z"/><path fill="#A44995" d="M727 556V330c0-13.8-11.2-25-25-25H298c-13.8 0-25 11.2-25 25v226h454zM346.3 622.3H314c-2.8 0-5-2.2-5-5V615h42.3v2.3c0 2.8-2.2 5-5 5zM378.4 622.3h-11.2c-2.8 0-5-2.2-5-5V615h21.2v2.3c0 2.8-2.2 5-5 5z"/><path fill="#952584" d="M702 305h-18.3l-251 251H727V330c0-13.8-11.2-25-25-25z"/><path fill="#2C3088" d="m551 639.5-6.5-24.5h-89l-6.5 24.5zM380.7 570.1h-68.9c-1.5 0-2.8 1.2-2.8 2.7v2.8c0 1.5 1.2 2.8 2.8 2.8h68.9c1.5 0 2.8-1.2 2.8-2.8v-2.8c-.1-1.5-1.3-2.7-2.8-2.7z"/><path fill="#0091C5" d="M381.6 574.2h-70.8c-.7 0-1.3-.8-1.6-2.1-.2.6-.3 1.3-.3 2.1 0 2.3.8 4.1 1.8 4.1h70.8c1 0 1.8-1.8 1.8-4.1 0-.8-.1-1.5-.3-2.1-.2 1.3-.7 2.1-1.4 2.1z"/><path fill="#2C3088" d="M380.7 588.3h-68.9c-1.5 0-2.8 1.2-2.8 2.7v2.8c0 1.5 1.2 2.8 2.8 2.8h68.9c1.5 0 2.8-1.2 2.8-2.8V591c-.1-1.4-1.3-2.7-2.8-2.7z"/><path fill="#0091C5" d="M381.6 592.5h-70.8c-.7 0-1.3-.8-1.6-2.1-.2.6-.3 1.3-.3 2.1 0 2.3.8 4.1 1.8 4.1h70.8c1 0 1.8-1.8 1.8-4.1 0-.8-.1-1.5-.3-2.1-.2 1.2-.7 2.1-1.4 2.1zM516 615h186c13.8 0 25-11.2 25-25v-34H575l-59 59z"/><circle fill="#413E91" cx="674" cy="589.6" r="18.1"/><circle fill="#A44995" cx="674" cy="584.6" r="18.1"/><path fill="#952584" d="M674 598c-7.4 0-13.4-6-13.4-13.4s6-13.4 13.4-13.4 13.4 6 13.4 13.4-6 13.4-13.4 13.4zm0-21.9c-4.7 0-8.4 3.8-8.4 8.4 0 4.7 3.8 8.4 8.4 8.4s8.4-3.8 8.4-8.4c0-4.6-3.7-8.4-8.4-8.4z"/><path fill="#952584" d="M674 587.1c-1.4 0-2.5-1.1-2.5-2.5v-10.9c0-1.4 1.1-2.5 2.5-2.5s2.5 1.1 2.5 2.5v10.9c0 1.4-1.1 2.5-2.5 2.5z"/><g><path fill="#DADADA" d="M383.3 524.5h-73.4c-2.3 0-4.2-1.9-4.2-4.2v-4.9c0-2.3 1.9-4.2 4.2-4.2h73.4c2.3 0 4.2 1.9 4.2 4.2v4.9c0 2.4-1.9 4.2-4.2 4.2z"/><path fill="#FFF" d="M383.3 519.5h-73.4c-2.3 0-4.2-1.9-4.2-4.2v-4.9c0-2.3 1.9-4.2 4.2-4.2h73.4c2.3 0 4.2 1.9 4.2 4.2v4.9c0 2.4-1.9 4.2-4.2 4.2z"/><g><path fill="#DADADA" d="M383.3 497.9h-73.4c-2.3 0-4.2-1.9-4.2-4.2v-4.9c0-2.3 1.9-4.2 4.2-4.2h73.4c2.3 0 4.2 1.9 4.2 4.2v4.9c0 2.3-1.9 4.2-4.2 4.2z"/><path fill="#FFF" d="M383.3 492.9h-73.4c-2.3 0-4.2-1.9-4.2-4.2v-4.9c0-2.3 1.9-4.2 4.2-4.2h73.4c2.3 0 4.2 1.9 4.2 4.2v4.9c0 2.3-1.9 4.2-4.2 4.2z"/></g></g><g><path fill="#DADADA" d="M484.9 524.5h-73.4c-2.3 0-4.2-1.9-4.2-4.2v-4.9c0-2.3 1.9-4.2 4.2-4.2h73.4c2.3 0 4.2 1.9 4.2 4.2v4.9c0 2.4-1.9 4.2-4.2 4.2z"/><path fill="#FFF" d="M484.9 519.5h-73.4c-2.3 0-4.2-1.9-4.2-4.2v-4.9c0-2.3 1.9-4.2 4.2-4.2h73.4c2.3 0 4.2 1.9 4.2 4.2v4.9c0 2.4-1.9 4.2-4.2 4.2z"/><g><path fill="#DADADA" d="M484.9 497.9h-73.4c-2.3 0-4.2-1.9-4.2-4.2v-4.9c0-2.3 1.9-4.2 4.2-4.2h73.4c2.3 0 4.2 1.9 4.2 4.2v4.9c0 2.3-1.9 4.2-4.2 4.2z"/><path fill="#FFF" d="M484.9 492.9h-73.4c-2.3 0-4.2-1.9-4.2-4.2v-4.9c0-2.3 1.9-4.2 4.2-4.2h73.4c2.3 0 4.2 1.9 4.2 4.2v4.9c0 2.3-1.9 4.2-4.2 4.2z"/></g></g><g><path fill="#DADADA" d="M587.5 524.5h-73.4c-2.3 0-4.2-1.9-4.2-4.2v-4.9c0-2.3 1.9-4.2 4.2-4.2h73.4c2.3 0 4.2 1.9 4.2 4.2v4.9c0 2.4-1.9 4.2-4.2 4.2z"/><path fill="#FFF" d="M587.5 519.5h-73.4c-2.3 0-4.2-1.9-4.2-4.2v-4.9c0-2.3 1.9-4.2 4.2-4.2h73.4c2.3 0 4.2 1.9 4.2 4.2v4.9c0 2.4-1.9 4.2-4.2 4.2z"/><g><path fill="#DADADA" d="M587.5 497.9h-73.4c-2.3 0-4.2-1.9-4.2-4.2v-4.9c0-2.3 1.9-4.2 4.2-4.2h73.4c2.3 0 4.2 1.9 4.2 4.2v4.9c0 2.3-1.9 4.2-4.2 4.2z"/><path fill="#FFF" d="M587.5 492.9h-73.4c-2.3 0-4.2-1.9-4.2-4.2v-4.9c0-2.3 1.9-4.2 4.2-4.2h73.4c2.3 0 4.2 1.9 4.2 4.2v4.9c0 2.3-1.9 4.2-4.2 4.2z"/></g></g><g><path fill="#DADADA" d="M589.2 389.4H310.7c-2.8 0-5-2.2-5-5v-30c0-2.8 2.2-5 5-5h278.5c2.8 0 5 2.2 5 5v30c0 2.8-2.2 5-5 5z"/><path fill="#FFF" d="M589.2 379.4H310.7c-2.8 0-5-2.2-5-5v-30c0-2.8 2.2-5 5-5h278.5c2.8 0 5 2.2 5 5v30c0 2.8-2.2 5-5 5z"/></g><g><path fill="#DADADA" d="M382.3 459.4h-71.4c-2.9 0-5.2-2.2-5.2-5v-30c0-2.8 2.3-5 5.2-5h71.4c2.9 0 5.2 2.2 5.2 5v30c0 2.8-2.4 5-5.2 5z"/><path fill="#FFF" d="M382.3 449.4h-71.4c-2.9 0-5.2-2.2-5.2-5v-30c0-2.8 2.3-5 5.2-5h71.4c2.9 0 5.2 2.2 5.2 5v30c0 2.8-2.4 5-5.2 5z"/></g><g><path fill="#DADADA" d="M483.9 459.4h-71.4c-2.9 0-5.2-2.2-5.2-5v-30c0-2.8 2.3-5 5.2-5h71.4c2.9 0 5.2 2.2 5.2 5v30c0 2.8-2.3 5-5.2 5z"/><path fill="#FFF" d="M483.9 449.4h-71.4c-2.9 0-5.2-2.2-5.2-5v-30c0-2.8 2.3-5 5.2-5h71.4c2.9 0 5.2 2.2 5.2 5v30c0 2.8-2.3 5-5.2 5z"/></g><g><path fill="#DADADA" d="M586.5 459.4h-71.4c-2.9 0-5.2-2.2-5.2-5v-30c0-2.8 2.3-5 5.2-5h71.4c2.9 0 5.2 2.2 5.2 5v30c0 2.8-2.3 5-5.2 5z"/><path fill="#FFF" d="M586.5 449.4h-71.4c-2.9 0-5.2-2.2-5.2-5v-30c0-2.8 2.3-5 5.2-5h71.4c2.9 0 5.2 2.2 5.2 5v30c0 2.8-2.3 5-5.2 5z"/></g><g><path fill="#DADADA" d="M676.7 493.1 643 525.2c-3 2.8-7.9 1.1-8.4-3.1l-5.3-46.2c-.2-1.5 0-3.1.5-4.5l69.3-191c1.9-5.2 7.6-7.9 12.8-6l30.6 11.1c5.2 1.9 7.9 7.6 6 12.8l-69.3 191c-.5 1.4-1.4 2.7-2.5 3.8z"/><path fill="#FFF" d="m664.5 488.6-23.7 35.7c-2.1 3.2-4.5 2.3-4.1-1.5l4.7-42.6c.2-1.4.5-2.9 1-4.4l69.3-191c1.9-5.2 5.5-8.7 8-7.7l14.8 5.4c2.5.9 3 5.9 1.2 11.1l-69.3 191c-.4 1.5-1.1 2.8-1.9 4z"/><path fill="#0091C5" d="m688.6 309.467 49.356 17.903-5.797 15.981-49.355-17.902z"/><path fill="#36A9E1" d="m701.103 314.004 24.255 8.797-5.797 15.982-24.255-8.798z"/><path fill="#0091C5" d="M629.3 473.6c-.1.7-.1 1.5 0 2.2l5.3 46.2c.5 4.1 5.4 5.9 8.4 3.1l33.7-32.1c.5-.5 1-1.1 1.4-1.7l-48.8-17.7z"/><path fill="#36A9E1" d="M641.8 478.2c-.2.7-.3 1.4-.4 2.1l-4.7 42.6c-.4 3.8 2 4.7 4.1 1.5l23.7-35.7c.4-.6.7-1.2 1.1-1.9l-23.8-8.6z"/></g></g></g></switch></svg>